# xmcd
#
# Track frame offsets:
#	150
#	10916
#	22158
#	34535
#	46602
#	58944
#	70879
#	82468
#	94097
#	105021
#	116015
#	127577
#	138961
#	150966
#	174378
#
# Disc length: 2514 seconds
#
# Revision: 0
# Processed by: cddbd v1.4PL0 Copyright (c) Steve Scherf et al.
# Submitted via: audiograbber 1.81.02
#
DISCID=b309d00f
DTITLE=Francis, Connie - Millenium Collection CD 2
DYEAR=1999
DGENRE=Pop
TTITLE0=Vacation
TTITLE1=I'm Sorry I Made You Cry
TTITLE2=When The Boys In Your Arms
TTITLE3=Follow The Boys
TTITLE4=(He's My) Dreamboat
TTITLE5=If I Didn't Care
TTITLE6=Carolina Moon
TTITLE7=Valentino
TTITLE8=I'm Gonna Be Warm This Winter
TTITLE9=Blue Winter
TTITLE10=In The Summer Of This Year
TTITLE11=Frankie
TTITLE12=Al Di La
TTITLE13=Hava Negilah
TTITLE14=Malaguena
EXTD=
EXTT0=
EXTT1=
EXTT2=
EXTT3=
EXTT4=
EXTT5=
EXTT6=
EXTT7=
EXTT8=
EXTT9=
EXTT10=
EXTT11=
EXTT12=
EXTT13=
EXTT14=
PLAYORDER=
